<?xml version="1.0" encoding="UTF-8" standalone="no"?>
<!DOCTYPE svg PUBLIC "-//W3C//DTD SVG 1.1//EN" "http://www.w3.org/Graphics/SVG/1.1/DTD/svg11.dtd">
<!-- Generiert durch Microsoft Visio, SVG Export WorkoutRetro.svg Page-1 -->
<svg xmlns="http://www.w3.org/2000/svg" xmlns:xlink="http://www.w3.org/1999/xlink" xmlns:ev="http://www.w3.org/2001/xml-events"
		xmlns:v="http://schemas.microsoft.com/visio/2003/SVGExtensions/" width="11.6929in" height="8.26772in"
		viewBox="0 0 841.89 595.276" xml:space="preserve" color-interpolation-filters="sRGB" class="st17">
	<v:documentProperties v:langID="1031" v:metric="true" v:viewMarkup="false">
		<v:userDefs>
			<v:ud v:nameU="msvNoAutoConnect" v:prompt="" v:val="VT0(0):26"/>
		</v:userDefs>
	</v:documentProperties>

	<style type="text/css">
	<![CDATA[
		.st1 {fill:#a42f0f;stroke:#88260b;stroke-linecap:butt;stroke-width:1.25;visibility:hidden}
		.st2 {fill:#ffffff;stroke:#88260b;stroke-linecap:butt;stroke-width:1.25}
		.st3 {fill:#a42f0f}
		.st4 {stroke:#88260b;stroke-linecap:butt;stroke-width:1.25}
		.st5 {fill:#ffffff;font-family:Franklin Gothic Book;font-size:1.00001em;font-weight:bold}
		.st6 {fill:url(#grad0-14);stroke:#5d6e43;stroke-linecap:butt;stroke-width:1.25}
		.st7 {fill:#6d7f39;font-family:Franklin Gothic Book;font-size:1.00001em}
		.st8 {font-size:1em}
		.st9 {fill:none;stroke:none;stroke-linecap:butt;stroke-width:1.25}
		.st10 {fill:#000000;font-family:Franklin Gothic Book;font-size:1.00001em}
		.st11 {fill:#a42f0f;stroke:#88260b;stroke-linecap:butt;stroke-width:1.25}
		.st12 {fill:#a53010;font-family:Franklin Gothic Book;font-size:1.00001em}
		.st13 {marker-end:url(#mrkr5-35);stroke:#5d6e43;stroke-linecap:butt;stroke-width:1}
		.st14 {fill:#5d6e43;fill-opacity:1;stroke:#5d6e43;stroke-opacity:1;stroke-width:0.28409090909091}
		.st15 {fill:#f3f3f2}
		.st16 {stroke:#615b44;stroke-linecap:butt;stroke-width:1.25}
		.st17 {fill:none;fill-rule:evenodd;font-size:12px;overflow:visible;stroke-linecap:square;stroke-miterlimit:3}
	]]>
	</style>

	<defs id="Patterns_And_Gradients">
		<linearGradient id="grad0-14" x1="0" y1="0" x2="1" y2="0" gradientTransform="rotate(90 0.5 0.5)">
			<stop offset="0.02" stop-color="#e5e7e2" stop-opacity="1"/>
			<stop offset="0.34" stop-color="#d5d9d0" stop-opacity="1"/>
			<stop offset="0.96" stop-color="#a6b09a" stop-opacity="1"/>
		</linearGradient>
	</defs>
	<defs id="Markers">
		<g id="lend5">
			<path d="M 2 1 L 0 0 L 1.98117 -0.993387 C 1.67173 -0.364515 1.67301 0.372641 1.98465 1.00043 " style="stroke:none"/>
		</g>
		<marker id="mrkr5-35" class="st14" v:arrowType="5" v:arrowSize="2" v:setback="6.16" refX="-6.16" orient="auto"
				markerUnits="strokeWidth" overflow="visible">
			<use xlink:href="#lend5" transform="scale(-3.52,-3.52) "/>
		</marker>
	</defs>
	<g v:mID="0" v:index="1" v:groupContext="foregroundPage">
		<v:userDefs>
			<v:ud v:nameU="msvThemeOrder" v:val="VT0(0):26"/>
		</v:userDefs>
		<title>Zeichenblatt-1</title>
		<v:pageProperties v:drawingScale="0.0393701" v:pageScale="0.0393701" v:drawingUnits="24" v:shadowOffsetX="8.50394"
				v:shadowOffsetY="-8.50394"/>
		<v:layer v:name="Verbinder" v:index="0"/>
		<g id="group16-1" transform="translate(127.559,-45.3543)" v:mID="16" v:groupContext="group">
			<v:userDefs>
				<v:ud v:nameU="visVersion" v:prompt="" v:val="VT0(15):26"/>
				<v:ud v:nameU="msvStructureType" v:prompt="" v:val="VT4(Container)"/>
				<v:ud v:nameU="msvSDContainerMargin" v:prompt="" v:val="VT0(0.11811023622047):24"/>
				<v:ud v:nameU="msvSDContainerResize" v:prompt="" v:val="VT0(1):26"/>
				<v:ud v:nameU="msvSDHeadingStyle" v:prompt="" v:val="VT0(1):26"/>
				<v:ud v:nameU="msvSDHeadingStyleCount" v:prompt="" v:val="VT0(1):26"/>
			</v:userDefs>
			<title>Zusammengesetzter Zustand</title>
			<g id="shape16-2" v:mID="16" v:groupContext="groupContent">
				<rect x="0" y="107.249" width="435.543" height="488.027" rx="25.5118" ry="25.5118" class="st1"/>
			</g>
			<g id="group17-4" transform="translate(0,-465.623)" v:mID="17" v:groupContext="group">
				<v:userDefs>
					<v:ud v:nameU="UmlRole" v:prompt="" v:val="VT4(Title)"/>
					<v:ud v:nameU="msvStructureType" v:prompt="" v:val="VT4(Heading)"/>
					<v:ud v:nameU="msvSDContainerHeadingEdge" v:prompt="" v:val="VT4(Bottom)"/>
				</v:userDefs>
				<title>Tabelle.17</title>
				<desc>Fragen</desc>
				<g id="shape18-5" v:mID="18" v:groupContext="shape" transform="translate(0,465.623)">
					<title>Tabelle.18</title>
					<v:userDefs>
						<v:ud v:nameU="UmlRole" v:prompt="" v:val="VT4(Body)"/>
					</v:userDefs>
					<path d="M25.51 595.28 L410.03 595.28 A25.5118 25.5118 -180 0 0 435.54 569.76 L435.54 155.16 A25.5118 25.5118
								 -180 0 0 410.03 129.65 L25.51 129.65 A25.5118 25.5118 -180 0 0 0 155.16 L0 569.76 A25.5118 25.5118
								 -180 0 0 25.51 595.28 Z" class="st2"/>
				</g>
				<g id="shape17-7" v:mID="17" v:groupContext="groupContent">
					<v:textBlock v:margins="rect(4,4,4,4)" v:tabSpace="42.5197"/>
					<v:textRect cx="217.772" cy="584.074" width="435.55" height="22.4037"/>
					<path d="M217.77 595.28 L11.2 595.28 A11.2019 11.2019 0 0 1 0 584.07 L0 584.07 A11.2019 11.2019 0 0 1 11.2 572.87
								 L217.77 572.87 L217.77 595.28 L424.34 595.28 A11.2019 11.2019 -180 0 0 435.54 584.07 L435.54 584.07
								 A11.2019 11.2019 -180 0 0 424.34 572.87 L217.77 572.87 L217.77 595.28 Z" class="st3"/>
					<path d="M217.77 595.28 L11.2 595.28 A11.2019 11.2019 0 0 1 0 584.07 L0 584.07 A11.2019 11.2019 0 0 1 11.2 572.87
								 L217.77 572.87M217.77 595.28 L424.34 595.28 A11.2019 11.2019 -180 0 0 435.54 584.07 L435.54 584.07
								 A11.2019 11.2019 -180 0 0 424.34 572.87 L217.77 572.87" class="st4"/>
					<text x="200.23" y="587.67" class="st5" v:langID="1031"><v:paragraph v:horizAlign="1"/><v:tabList/>Fragen</text>				</g>
			</g>
		</g>
		<g id="shape2-11" v:mID="2" v:groupContext="shape" transform="translate(51.0236,-303.314)">
			<title>Anfangszustand</title>
			<desc>Beginn der Retrospektive</desc>
			<v:userDefs>
				<v:ud v:nameU="visVersion" v:prompt="" v:val="VT0(15):26"/>
			</v:userDefs>
			<v:textBlock v:margins="rect(4,4,4,4)" v:tabSpace="42.5197"/>
			<v:textRect cx="17.0079" cy="613.678" width="80.82" height="36.8038"/>
			<ellipse cx="17.0079" cy="578.268" rx="17.0079" ry="17.0079" class="st6"/>
			<text x="-10.4" y="610.08" class="st7" v:langID="1031"><v:paragraph v:horizAlign="1"/><v:tabList/>Beginn der <v:lf/><tspan
						x="-17.9" dy="1.2em" class="st8">Retrospektive</tspan></text>		</g>
		<g id="shape8-17" v:mID="8" v:groupContext="shape" transform="translate(18,-548.929)">
			<title>Tabelle.8</title>
			<desc>Die Reihenfolge der Fragen und auch die Fragestellungen solle...</desc>
			<v:textBlock v:margins="rect(4,4,4,4)" v:tabSpace="42.5197"/>
			<v:textRect cx="217.772" cy="581.102" width="435.55" height="28.3465"/>
			<rect x="0" y="566.929" width="435.543" height="28.3465" class="st9"/>
			<text x="19.04" y="584.7" class="st10" v:langID="1031"><v:paragraph v:horizAlign="1"/><v:tabList/>Die Reihenfolge der Fragen und auch die Fragestellungen sollen sich variieren.</text>		</g>
		<g id="group19-20" transform="translate(178.076,-290.718)" v:mID="19" v:groupContext="group">
			<v:userDefs>
				<v:ud v:nameU="visVersion" v:prompt="" v:val="VT0(15):26"/>
			</v:userDefs>
			<title>Zustand</title>
			<g id="shape19-21" v:mID="19" v:groupContext="groupContent">
				<rect x="0" y="536.068" width="111.564" height="59.2075" rx="8.50394" ry="8.50394" class="st11"/>
			</g>
			<g id="shape20-23" v:mID="20" v:groupContext="shape" transform="translate(0,-36.8038)">
				<title>Tabelle.20</title>
				<desc>Allgemein</desc>
				<v:userDefs>
					<v:ud v:nameU="UmlRole" v:prompt="" v:val="VT4(Title)"/>
				</v:userDefs>
				<v:textBlock v:margins="rect(4,4,4,4)" v:tabSpace="42.5197"/>
				<v:textRect cx="55.7819" cy="584.074" width="111.57" height="22.4037"/>
				<path d="M8.5 595.28 L103.06 595.28 A8.50394 8.50394 -180 0 0 111.56 586.77 L111.56 581.38 A8.50394 8.50394 -180
							 0 0 103.06 572.87 L8.5 572.87 A8.50394 8.50394 -180 0 0 0 581.38 L0 586.77 A8.50394 8.50394 -180 0 0
							 8.5 595.28 Z" class="st11"/>
				<text x="31.08" y="587.67" class="st5" v:langID="1031"><v:paragraph v:horizAlign="1"/><v:tabList/>Allgemein</text>			</g>
			<g id="shape21-26" v:mID="21" v:groupContext="shape">
				<title>Tabelle.21</title>
				<desc>Wie fandest du das Training ?</desc>
				<v:userDefs>
					<v:ud v:nameU="UmlRole" v:prompt="" v:val="VT4(Body)"/>
				</v:userDefs>
				<v:textBlock v:margins="rect(4,4,4,4)" v:tabSpace="42.5197"/>
				<v:textRect cx="55.7819" cy="576.874" width="111.57" height="36.8038"/>
				<path d="M8.5 595.28 L103.06 595.28 A8.50394 8.50394 -180 0 0 111.56 586.77 L111.56 566.98 A8.50394 8.50394 -180
							 0 0 103.06 558.47 L8.5 558.47 A8.50394 8.50394 -180 0 0 0 566.98 L0 586.77 A8.50394 8.50394 -180 0 0
							 8.5 595.28 Z" class="st2"/>
				<text x="4" y="573.27" class="st12" v:langID="1031"><v:paragraph/><v:tabList/>Wie fandest du das <v:lf/><tspan
							x="4" dy="1.2em" class="st8">Training ?</tspan></text>			</g>
		</g>
		<g id="shape24-30" v:mID="24" v:groupContext="shape" v:layerMember="0" transform="translate(85.0394,-313.235)">
			<title>Dynamischer Verbinder.24</title>
			<path d="M0 588.19 L86.88 588.19" class="st13"/>
		</g>
		<g id="group26-36" transform="translate(171.277,-412.603)" v:mID="26" v:groupContext="group">
			<v:userDefs>
				<v:ud v:nameU="visVersion" v:prompt="" v:val="VT0(15):26"/>
			</v:userDefs>
			<title>Zustand.26</title>
			<g id="shape26-37" v:mID="26" v:groupContext="groupContent">
				<rect x="0" y="536.068" width="125.163" height="59.2075" rx="8.50394" ry="8.50394" class="st11"/>
			</g>
			<g id="shape27-39" v:mID="27" v:groupContext="shape" transform="translate(0,-36.8038)">
				<title>Tabelle.27</title>
				<desc>Spezifisch einfach</desc>
				<v:userDefs>
					<v:ud v:nameU="UmlRole" v:prompt="" v:val="VT4(Title)"/>
				</v:userDefs>
				<v:textBlock v:margins="rect(4,4,4,4)" v:tabSpace="42.5197"/>
				<v:textRect cx="62.5816" cy="584.074" width="125.17" height="22.4037"/>
				<path d="M8.5 595.28 L116.66 595.28 A8.50394 8.50394 -180 0 0 125.16 586.77 L125.16 581.38 A8.50394 8.50394 -180
							 0 0 116.66 572.87 L8.5 572.87 A8.50394 8.50394 -180 0 0 0 581.38 L0 586.77 A8.50394 8.50394 -180 0 0
							 8.5 595.28 Z" class="st11"/>
				<text x="16.61" y="587.67" class="st5" v:langID="1031"><v:paragraph v:horizAlign="1"/><v:tabList/>Spezifisch einfach</text>			</g>
			<g id="shape28-42" v:mID="28" v:groupContext="shape">
				<title>Tabelle.28</title>
				<desc>Welche Übung fandest du zu einfach?</desc>
				<v:userDefs>
					<v:ud v:nameU="UmlRole" v:prompt="" v:val="VT4(Body)"/>
				</v:userDefs>
				<v:textBlock v:margins="rect(4,4,4,4)" v:tabSpace="42.5197"/>
				<v:textRect cx="62.5816" cy="576.874" width="125.17" height="36.8038"/>
				<path d="M8.5 595.28 L116.66 595.28 A8.50394 8.50394 -180 0 0 125.16 586.77 L125.16 566.98 A8.50394 8.50394 -180
							 0 0 116.66 558.47 L8.5 558.47 A8.50394 8.50394 -180 0 0 0 566.98 L0 586.77 A8.50394 8.50394 -180 0 0
							 8.5 595.28 Z" class="st2"/>
				<text x="4" y="573.27" class="st12" v:langID="1031"><v:paragraph/><v:tabList/>Welche Übung fandest<v:lf/><tspan
							x="4" dy="1.2em" class="st8">      </tspan>du zu einfach?  </text>			</g>
		</g>
		<g id="shape29-46" v:mID="29" v:groupContext="shape" v:layerMember="0" transform="translate(226.772,-349.925)">
			<title>Dynamischer Verbinder.29</title>
			<path d="M7.09 595.28 L7.09 538.76" class="st13"/>
		</g>
		<g id="group30-51" transform="translate(388.55,-412.603)" v:mID="30" v:groupContext="group">
			<v:userDefs>
				<v:ud v:nameU="visVersion" v:prompt="" v:val="VT0(15):26"/>
			</v:userDefs>
			<title>Zustand.30</title>
			<g id="shape30-52" v:mID="30" v:groupContext="groupContent">
				<rect x="0" y="536.068" width="144.16" height="59.2075" rx="8.50394" ry="8.50394" class="st11"/>
			</g>
			<g id="shape31-54" v:mID="31" v:groupContext="shape" transform="translate(0,-36.8038)">
				<title>Tabelle.31</title>
				<desc>Spezifisch schwer</desc>
				<v:userDefs>
					<v:ud v:nameU="UmlRole" v:prompt="" v:val="VT4(Title)"/>
				</v:userDefs>
				<v:textBlock v:margins="rect(4,4,4,4)" v:tabSpace="42.5197"/>
				<v:textRect cx="72.0801" cy="584.074" width="144.17" height="22.4037"/>
				<path d="M8.5 595.28 L135.66 595.28 A8.50394 8.50394 -180 0 0 144.16 586.77 L144.16 581.38 A8.50394 8.50394 -180
							 0 0 135.66 572.87 L8.5 572.87 A8.50394 8.50394 -180 0 0 0 581.38 L0 586.77 A8.50394 8.50394 -180 0 0
							 8.5 595.28 Z" class="st11"/>
				<text x="26.97" y="587.67" class="st5" v:langID="1031"><v:paragraph v:horizAlign="1"/><v:tabList/>Spezifisch schwer</text>			</g>
			<g id="shape32-57" v:mID="32" v:groupContext="shape">
				<title>Tabelle.32</title>
				<desc>Gab es eine Übung die du zu schwer fandest?</desc>
				<v:userDefs>
					<v:ud v:nameU="UmlRole" v:prompt="" v:val="VT4(Body)"/>
				</v:userDefs>
				<v:textBlock v:margins="rect(4,4,4,4)" v:tabSpace="42.5197"/>
				<v:textRect cx="72.0801" cy="576.874" width="144.17" height="36.8038"/>
				<path d="M8.5 595.28 L135.66 595.28 A8.50394 8.50394 -180 0 0 144.16 586.77 L144.16 566.98 A8.50394 8.50394 -180
							 0 0 135.66 558.47 L8.5 558.47 A8.50394 8.50394 -180 0 0 0 566.98 L0 586.77 A8.50394 8.50394 -180 0 0
							 8.5 595.28 Z" class="st2"/>
				<text x="4" y="573.27" class="st12" v:langID="1031"><v:paragraph/><v:tabList/>Gab es eine Übung die du <v:lf/><tspan
							x="4" dy="1.2em" class="st8">     </tspan>zu schwer fandest?  </text>			</g>
		</g>
		<g id="shape38-61" v:mID="38" v:groupContext="shape" v:layerMember="0" transform="translate(296.44,-435.12)">
			<title>Dynamischer Verbinder.38</title>
			<path d="M0 588.19 L85.95 588.19" class="st13"/>
		</g>
		<g id="group39-66" transform="translate(390.033,-290.718)" v:mID="39" v:groupContext="group">
			<v:userDefs>
				<v:ud v:nameU="visVersion" v:prompt="" v:val="VT0(15):26"/>
			</v:userDefs>
			<title>Zustand.39</title>
			<g id="shape39-67" v:mID="39" v:groupContext="groupContent">
				<rect x="0" y="536.068" width="141.194" height="59.2075" rx="8.50394" ry="8.50394" class="st11"/>
			</g>
			<g id="shape40-69" v:mID="40" v:groupContext="shape" transform="translate(0,-36.8038)">
				<title>Tabelle.40</title>
				<desc>Motivation</desc>
				<v:userDefs>
					<v:ud v:nameU="UmlRole" v:prompt="" v:val="VT4(Title)"/>
				</v:userDefs>
				<v:textBlock v:margins="rect(4,4,4,4)" v:tabSpace="42.5197"/>
				<v:textRect cx="70.5971" cy="584.074" width="141.2" height="22.4037"/>
				<path d="M8.5 595.28 L132.69 595.28 A8.50394 8.50394 -180 0 0 141.19 586.77 L141.19 581.38 A8.50394 8.50394 -180
							 0 0 132.69 572.87 L8.5 572.87 A8.50394 8.50394 -180 0 0 0 581.38 L0 586.77 A8.50394 8.50394 -180 0 0
							 8.5 595.28 Z" class="st11"/>
				<text x="43.9" y="587.67" class="st5" v:langID="1031"><v:paragraph v:horizAlign="1"/><v:tabList/>Motivation</text>			</g>
			<g id="shape41-72" v:mID="41" v:groupContext="shape">
				<title>Tabelle.41</title>
				<desc>Wie motiviert warst du vor Beginn des Trainings?</desc>
				<v:userDefs>
					<v:ud v:nameU="UmlRole" v:prompt="" v:val="VT4(Body)"/>
				</v:userDefs>
				<v:textBlock v:margins="rect(4,4,4,4)" v:tabSpace="42.5197"/>
				<v:textRect cx="70.5971" cy="576.874" width="141.2" height="36.8038"/>
				<path d="M8.5 595.28 L132.69 595.28 A8.50394 8.50394 -180 0 0 141.19 586.77 L141.19 566.98 A8.50394 8.50394 -180
							 0 0 132.69 558.47 L8.5 558.47 A8.50394 8.50394 -180 0 0 0 566.98 L0 586.77 A8.50394 8.50394 -180 0 0
							 8.5 595.28 Z" class="st2"/>
				<text x="4" y="573.27" class="st12" v:langID="1031"><v:paragraph/><v:tabList/>Wie motiviert warst du<v:lf/><tspan
							x="4" dy="1.2em" class="st8">vor Beginn des Trainings?</tspan></text>			</g>
		</g>
		<g id="shape42-76" v:mID="42" v:groupContext="shape" v:layerMember="0" transform="translate(453.543,-412.603)">
			<title>Dynamischer Verbinder.42</title>
			<path d="M7.09 595.28 L7.09 651.79" class="st13"/>
		</g>
		<g id="shape43-81" v:mID="43" v:groupContext="shape" transform="translate(443.622,-215.433)">
			<title>Auswahl</title>
			<v:userDefs>
				<v:ud v:nameU="visVersion" v:prompt="" v:val="VT0(15):26"/>
			</v:userDefs>
			<path d="M17.01 595.28 L34.02 578.27 L17.01 561.26 L0 578.27 L17.01 595.28 Z" class="st6"/>
		</g>
		<g id="shape44-84" v:mID="44" v:groupContext="shape" v:layerMember="0" transform="translate(453.543,-290.718)">
			<title>Dynamischer Verbinder.44</title>
			<path d="M7.09 595.28 L7.09 630.38" class="st13"/>
		</g>
		<g id="shape45-89" v:mID="45" v:groupContext="shape" transform="translate(374.173,-170.079)">
			<title>Tabelle.45</title>
			<desc>falls noch nie gefragt</desc>
			<v:textBlock v:margins="rect(4,4,4,4)" v:tabSpace="42.5197"/>
			<v:textRect cx="39.685" cy="578.268" width="79.38" height="34.0157"/>
			<rect x="0" y="561.26" width="79.3701" height="34.0157" class="st9"/>
			<text x="6.01" y="574.67" class="st7" v:langID="1031"><v:paragraph v:horizAlign="1"/><v:tabList/>falls noch nie <tspan
						x="21.87" dy="1.2em" class="st8">gefragt</tspan></text>		</g>
		<g id="group48-93" transform="translate(387.361,-95.396)" v:mID="48" v:groupContext="group">
			<v:userDefs>
				<v:ud v:nameU="visVersion" v:prompt="" v:val="VT0(15):26"/>
			</v:userDefs>
			<title>Zustand.48</title>
			<g id="shape48-94" v:mID="48" v:groupContext="groupContent">
				<rect x="0" y="536.068" width="146.539" height="59.2075" rx="8.50394" ry="8.50394" class="st11"/>
			</g>
			<g id="shape49-96" v:mID="49" v:groupContext="shape" transform="translate(0,-36.8038)">
				<title>Tabelle.49</title>
				<desc>Tageszeit Training</desc>
				<v:userDefs>
					<v:ud v:nameU="UmlRole" v:prompt="" v:val="VT4(Title)"/>
				</v:userDefs>
				<v:textBlock v:margins="rect(4,4,4,4)" v:tabSpace="42.5197"/>
				<v:textRect cx="73.2694" cy="584.074" width="146.54" height="22.4037"/>
				<path d="M8.5 595.28 L138.03 595.28 A8.50394 8.50394 -180 0 0 146.54 586.77 L146.54 581.38 A8.50394 8.50394 -180
							 0 0 138.03 572.87 L8.5 572.87 A8.50394 8.50394 -180 0 0 -0 581.38 L0 586.77 A8.50394 8.50394 -180 0
							 0 8.5 595.28 Z" class="st11"/>
				<text x="27.62" y="587.67" class="st5" v:langID="1031"><v:paragraph v:horizAlign="1"/><v:tabList/>Tageszeit Training</text>			</g>
			<g id="shape50-99" v:mID="50" v:groupContext="shape">
				<title>Tabelle.50</title>
				<desc>Trainierst du lieber abends oder eher morgens?</desc>
				<v:userDefs>
					<v:ud v:nameU="UmlRole" v:prompt="" v:val="VT4(Body)"/>
				</v:userDefs>
				<v:textBlock v:margins="rect(4,4,4,4)" v:tabSpace="42.5197"/>
				<v:textRect cx="73.2694" cy="576.874" width="146.54" height="36.8038"/>
				<path d="M8.5 595.28 L138.03 595.28 A8.50394 8.50394 -180 0 0 146.54 586.77 L146.54 566.98 A8.50394 8.50394 -180
							 0 0 138.03 558.47 L8.5 558.47 A8.50394 8.50394 -180 0 0 -0 566.98 L0 586.77 A8.50394 8.50394 -180 0
							 0 8.5 595.28 Z" class="st2"/>
				<text x="4" y="573.27" class="st12" v:langID="1031"><v:paragraph/><v:tabList/>Trainierst du lieber abends<v:lf/><tspan
							x="4" dy="1.2em" class="st8">oder eher morgens? </tspan> </text>			</g>
		</g>
		<g id="shape51-103" v:mID="51" v:groupContext="shape" v:layerMember="0" transform="translate(453.543,-215.433)">
			<title>Dynamischer Verbinder.51</title>
			<path d="M7.09 595.28 L7.09 649.95" class="st13"/>
		</g>
		<g id="shape52-108" v:mID="52" v:groupContext="shape" transform="translate(684.567,-337.323)">
			<title>Endzustand</title>
			<v:userDefs>
				<v:ud v:nameU="visVersion" v:prompt="" v:val="VT0(15):26"/>
			</v:userDefs>
			<path d="M30.61 578.27 A13.6063 13.6063 -180 1 0 3.4 578.27 A13.6063 13.6063 -180 1 0 30.61 578.27 Z" class="st15"/>
			<path d="M34.02 578.27 A17.0079 17.0079 -180 1 0 0 578.27 A17.0079 17.0079 -180 1 0 34.02 578.27" class="st16"/>
			<path d="M30.61 578.27 A13.6063 13.6063 -180 1 0 3.4 578.27 A13.6063 13.6063 -180 1 0 30.61 578.27" class="st16"/>
		</g>
		<g id="shape55-112" v:mID="55" v:groupContext="shape" transform="translate(653.386,-376.71)">
			<title>Tabelle.55</title>
			<desc>Programmende</desc>
			<v:textBlock v:margins="rect(4,4,4,4)" v:tabSpace="42.5197"/>
			<v:textRect cx="48.189" cy="581.102" width="96.38" height="28.3465"/>
			<rect x="0" y="566.929" width="96.378" height="28.3465" class="st9"/>
			<text x="9.14" y="584.7" class="st7" v:langID="1031"><v:paragraph v:horizAlign="1"/><v:tabList/>Programmende</text>		</g>
		<g id="group56-115" transform="translate(637.224,-181.237)" v:mID="56" v:groupContext="group">
			<v:userDefs>
				<v:ud v:nameU="visVersion" v:prompt="" v:val="VT0(15):26"/>
			</v:userDefs>
			<title>Zustand.56</title>
			<g id="shape56-116" v:mID="56" v:groupContext="groupContent">
				<rect x="0" y="492.868" width="128.702" height="102.408" rx="8.50394" ry="8.50394" class="st11"/>
			</g>
			<g id="shape57-118" v:mID="57" v:groupContext="shape" transform="translate(0,-80.0041)">
				<title>Tabelle.57</title>
				<desc>Abschied</desc>
				<v:userDefs>
					<v:ud v:nameU="UmlRole" v:prompt="" v:val="VT4(Title)"/>
				</v:userDefs>
				<v:textBlock v:margins="rect(4,4,4,4)" v:tabSpace="42.5197"/>
				<v:textRect cx="64.3511" cy="584.074" width="128.71" height="22.4037"/>
				<path d="M8.5 595.28 L120.2 595.28 A8.50394 8.50394 -180 0 0 128.7 586.77 L128.7 581.38 A8.50394 8.50394 -180 0 0
							 120.2 572.87 L8.5 572.87 A8.50394 8.50394 -180 0 0 0 581.38 L0 586.77 A8.50394 8.50394 -180 0 0 8.5
							 595.28 Z" class="st11"/>
				<text x="41.34" y="587.67" class="st5" v:langID="1031"><v:paragraph v:horizAlign="1"/><v:tabList/>Abschied</text>			</g>
			<g id="shape58-121" v:mID="58" v:groupContext="shape">
				<title>Tabelle.58</title>
				<desc>Danke, das war alles. Dies wird helfen dein Training besser a...</desc>
				<v:userDefs>
					<v:ud v:nameU="UmlRole" v:prompt="" v:val="VT4(Body)"/>
				</v:userDefs>
				<v:textBlock v:margins="rect(4,4,4,4)" v:tabSpace="42.5197"/>
				<v:textRect cx="64.3511" cy="555.274" width="128.71" height="80.0041"/>
				<path d="M8.5 595.28 L120.2 595.28 A8.50394 8.50394 -180 0 0 128.7 586.77 L128.7 523.78 A8.50394 8.50394 -180 0 0
							 120.2 515.27 L8.5 515.27 A8.50394 8.50394 -180 0 0 0 523.78 L0 586.77 A8.50394 8.50394 -180 0 0 8.5
							 595.28 Z" class="st2"/>
				<text x="4" y="530.07" class="st12" v:langID="1031"><v:paragraph/><v:tabList/>Danke, das war alles. <v:lf/><tspan
							x="4" dy="1.2em" class="st8">Dies wird helfen dein <v:lf/></tspan><tspan x="4" dy="1.2em" class="st8">Training besser an dich<v:lf/></tspan><tspan
							x="4" dy="1.2em" class="st8">anzupassen. <v:lf/></tspan><tspan x="4" dy="1.2em" class="st8">Bis zum nächsten mal.</tspan></text>			</g>
		</g>
		<g id="shape60-128" v:mID="60" v:groupContext="shape" v:layerMember="0" transform="translate(533.899,-125)">
			<title>Dynamischer Verbinder.60</title>
			<path d="M0 595.28 L167.68 595.28 L167.68 545.2" class="st13"/>
		</g>
		<g id="shape61-133" v:mID="61" v:groupContext="shape" v:layerMember="0" transform="translate(477.638,-225.354)">
			<title>Dynamischer Verbinder.61</title>
			<path d="M0 588.19 L153.43 588.19" class="st13"/>
		</g>
		<g id="shape62-138" v:mID="62" v:groupContext="shape" v:layerMember="0" transform="translate(694.488,-283.645)">
			<title>Dynamischer Verbinder.62</title>
			<path d="M7.09 595.28 L7.09 547.76" class="st13"/>
		</g>
	</g>
</svg>
